<svg viewBox="0 0 100 120" xmlns="http://www.w3.org/2000/svg">
  <!-- Map Pin Body -->
  <path d="M50 0 C22.4 0 0 22.4 0 50 C0 88 50 120 50 120 C50 120 100 88 100 50 C100 22.4 77.6 0 50 0 Z" fill="#5F9EA0" />
  
  <!-- Fish Icon -->
  <g transform="translate(25, 30) scale(0.5)">
    <!-- Fish Body -->
    <path d="M90,40 C70,20 25,20 10,40 C25,60 70,60 90,40 Z" fill="white" />
    
    <!-- Fish Eye -->
    <circle cx="75" cy="40" r="5" fill="#333" />
    
    <!-- Fish Tail -->
    <path d="M10,40 L0,25 L5,40 L0,55 Z" fill="white" />
    
    <!-- Fish Fin -->
    <path d="M50,25 C45,33 55,33 50,25 Z" fill="white" />
  </g>
  
  <!-- White Circle Inside Pin -->
  <circle cx="50" cy="45" r="30" fill="#ffffff" opacity="0.3" />
</svg>